<svg xmlns="http://www.w3.org/2000/svg" viewBox="0 0 158.73 164.73"><defs><style>.cls-1{fill:#f0f456;}.cls-2{fill:#fff;}.cls-3{fill:#e0dc34;}.cls-4{fill:#2d3742;}</style></defs><title>资源 5</title><g id="图层_2" data-name="图层 2"><g id="图层_1-2" data-name="图层 1"><path class="cls-1" d="M146.45,141.88l5-55.42a12,12,0,0,0-12-13.1H19.18a12,12,0,0,0-12,13.1l5,55.42H3.61v19.23H44.49V151.5H58.91v9.61H99.79V151.5h14.43v9.61H155.1V141.88Z"/><path class="cls-2" d="M22.19,121a2.41,2.41,0,0,1-2.4-2.19l-3-33.18a2.35,2.35,0,0,1,.62-1.84A2.46,2.46,0,0,1,19.18,83H38.54a2.4,2.4,0,0,1,0,4.8H21.82l2.77,30.57A2.41,2.41,0,0,1,22.4,121Z"/><path class="cls-2" d="M46.89,85.37A2.41,2.41,0,1,0,49.3,83,2.4,2.4,0,0,0,46.89,85.37Z"/><path class="cls-3" d="M3.61,151.48H44.49v9.61H3.61Zm55.3,0H99.79v9.61H58.91Zm87.54-9.6,5-55.42a12,12,0,0,0-12-13.1h-12a12,12,0,0,1,12,13.1l-5,55.42h6.23v9.6H114.22v9.61H155.1V141.88Z"/><path class="cls-4" d="M155.08,138.26h-4.69l4.69-51.48a15.64,15.64,0,0,0-15.57-17H102.66L98.75,44.41A8.67,8.67,0,0,1,102.21,36c5-3.64,7.79-8.42,7.79-13.44C110,10.76,95.39,0,79.34,0S48.67,10.74,48.67,22.56c0,5,2.78,9.8,7.79,13.44a8.62,8.62,0,0,1,3.46,8.43L56,69.73H19.18a15.64,15.64,0,0,0-15.57,17L8.3,138.26H3.61A3.62,3.62,0,0,0,0,141.88v19.23a3.62,3.62,0,0,0,3.61,3.62H44.49a3.63,3.63,0,0,0,3.62-3.62v-4.82h7.2v4.8a3.62,3.62,0,0,0,3.62,3.62H99.8a3.62,3.62,0,0,0,3.62-3.62v-4.8h7.21v4.8a3.62,3.62,0,0,0,3.61,3.62h40.88a3.62,3.62,0,0,0,3.61-3.62V141.86a3.67,3.67,0,0,0-3.65-3.6ZM139.51,77a8.42,8.42,0,0,1,8.38,9.18l-4.75,52.13H114.22a3.84,3.84,0,0,0-1,.14l-9.49-61.47h35.74ZM55.9,22.58c0-6.95,10.45-15.35,23.44-15.35s23.43,8.4,23.43,15.35c0,3.57-3,6.29-4.8,7.6A15.88,15.88,0,0,0,91.6,45.55l3.73,24.2h-32l3.77-24.2A15.8,15.8,0,0,0,60.7,30.18C58.91,28.87,55.9,26.15,55.9,22.58ZM13,79.69A8.37,8.37,0,0,1,19.18,77H54.92l-9.49,61.47a3.84,3.84,0,0,0-1-.14H15.53L10.78,86.15A8.45,8.45,0,0,1,13,79.69ZM40.88,157.5H7.21v-12H40.86v12Zm55.29,0H62.52v-12H96.17v12Zm3.62-19.24H58.91a3.62,3.62,0,0,0-3.62,3.62v7.2h-4.2L62.23,77H96.46l11.14,72.13h-4.22v-7.2a3.59,3.59,0,0,0-3.59-3.62Zm51.69,19.24H117.81v-12h33.67Z"/></g></g></svg>