<svg t="1563454845245" class="icon" viewBox="0 0 1024 1024" version="1.1" xmlns="http://www.w3.org/2000/svg" p-id="846" width="200" height="200"><path d="M951.035395 441.002843a31.639164 31.639164 0 0 0-23.959755 0H635.053326a73.107971 73.107971 0 0 1 0-146.215942h170.278089a365.130285 365.130285 0 1 0 48.021902 347.621234h0.921529a72.698402 72.698402 0 1 1 135.771946 52.015194A511.960579 511.960579 0 1 1 512.182787 0a506.431405 506.431405 0 0 1 365.744638 156.352761v-80.889772a73.210363 73.210363 0 1 1 146.318333 0v292.431883a73.210363 73.210363 0 0 1-73.210363 73.107971z" p-id="847"></path></svg>